<svg width="31" height="31" viewBox="0 0 31 31" fill="none" xmlns="http://www.w3.org/2000/svg">
<g clip-path="url(#clip0_1_208)">
<path d="M18.1309 23.3935C16.4365 23.9589 14.5676 23.9588 12.8684 23.3933C12.3923 23.2347 11.8782 23.4923 11.7199 23.9682C11.5615 24.4441 11.8189 24.9583 12.2948 25.1167C13.3296 25.4611 14.4159 25.6333 15.5018 25.6333C16.5878 25.6333 17.6735 25.4609 18.7058 25.1165C19.1816 24.9577 19.4386 24.4433 19.2798 23.9675C19.1211 23.4918 18.6068 23.2349 18.1309 23.3935Z" fill="#DC7000"/>
<path d="M26.0797 5.93353C25.6932 3.16109 23.3125 0.972807 20.364 0.972807H19.3266V0.908203C19.3266 0.406633 18.9199 0 18.4184 0H12.5816C12.0801 0 11.6734 0.406633 11.6734 0.908203V0.972746H10.6361C7.71221 0.972746 5.3283 3.13052 4.92288 5.93287C3.22042 6.32031 1.94561 7.84518 1.94561 9.66322V17.4456C1.94561 19.9344 3.9729 20.9487 4.89376 21.1676C5.30959 26.7706 10.0143 31 15.5 31C21.0943 31 25.6935 26.6585 26.1058 21.1679C28.4928 20.6011 29.0544 18.4355 29.0544 17.4456V9.66328C29.0544 7.84615 27.7808 6.32188 26.0797 5.93353ZM19.3266 2.78915H20.3639C22.9336 2.78915 23.9952 4.89019 24.2159 5.83672H19.3266V2.78915ZM13.4898 1.81641H17.5102V5.83672H13.4898V1.81641ZM10.6361 2.78915H11.6734V5.83672H6.78785C7.37691 3.36907 9.61242 2.78915 10.6361 2.78915ZM15.5 29.1836C11.0174 29.1836 7.1857 25.7878 6.72651 21.2721H11.2052C12.3196 21.2721 13.4101 20.8205 14.1969 20.0331C14.2016 20.0284 14.2062 20.0237 14.2108 20.0189C14.5524 19.6847 15.0212 19.4934 15.5 19.4934C15.9789 19.4934 16.4477 19.6848 16.7893 20.019C16.7938 20.0237 16.7984 20.0284 16.8031 20.0331C17.59 20.8205 18.6804 21.2721 19.7949 21.2721H24.2732C23.8171 25.7103 20.0566 29.1836 15.5 29.1836ZM27.238 17.4456C27.238 18.5696 26.3219 19.4557 25.2279 19.4557H19.7949C19.1657 19.4557 18.5502 19.2038 18.1028 18.7638C18.0979 18.7586 18.0929 18.7535 18.0879 18.7485C17.407 18.0676 16.4638 17.677 15.5001 17.677C14.5364 17.677 13.5932 18.0676 12.9123 18.7485C12.9073 18.7535 12.9022 18.7586 12.8973 18.7637C12.4498 19.2038 11.8343 19.4557 11.2052 19.4557H5.77211C4.68154 19.4557 3.76195 18.5734 3.76195 17.4456V9.66328C3.76195 8.55491 4.66374 7.65319 5.77211 7.65319H25.2278C26.3363 7.65319 27.238 8.55497 27.238 9.66328V17.4456H27.238Z" fill="#DC7000"/>
</g>
<defs>
<clipPath id="clip0_1_208">
<rect width="30.8475" height="30.8475" fill="white" transform="scale(1.00495)"/>
</clipPath>
</defs>
</svg>
