<svg width="40" height="40" viewBox="0 0 40 40" fill="none" xmlns="http://www.w3.org/2000/svg">
<g clip-path="url(#clip0_1_189)">
<path d="M8.25521 14.1406H0V16.4843H8.25521C8.90138 16.4843 9.42708 17.01 9.42708 17.6562C9.42708 18.3024 8.90138 18.8281 8.25521 18.8281H3.51561C1.5771 18.8281 0 20.4052 0 22.3437V25.8593H2.34374V22.3437C2.34374 21.6975 2.86944 21.1718 3.51561 21.1718H8.25521C10.1937 21.1718 11.7708 19.5947 11.7708 17.6562C11.7708 15.7177 10.1937 14.1406 8.25521 14.1406Z" fill="#DC7000"/>
<path d="M20.5857 14.1406C18.6472 14.1406 17.0701 15.7177 17.0701 17.6562V22.3437C17.0701 22.9898 16.5444 23.5155 15.8983 23.5155H10.5988V25.8593H15.8983C17.8368 25.8593 19.4139 24.2822 19.4139 22.3437V17.6562C19.4139 17.01 19.9396 16.4843 20.5857 16.4843H25.8852V14.1406H20.5857Z" fill="#DC7000"/>
<path d="M37.6561 21.1716V16.4843C37.6561 15.192 36.6047 14.1406 35.3123 14.1406C34.8684 14.1406 34.436 14.2656 34.0616 14.502L26.6399 19.1895C25.9553 19.6217 25.5467 20.3627 25.5467 21.1718C25.5467 22.4641 26.5981 23.5155 27.8905 23.5155H35.3123V25.8593H37.6561V23.5155H39.9998V21.1718L37.6561 21.1716ZM35.3123 21.1716L27.8913 21.1711L35.3123 16.4843V21.1716Z" fill="#DC7000"/>
</g>
<defs>
<clipPath id="clip0_1_189">
<rect width="39.661" height="39.661" fill="white" transform="scale(1.00854)"/>
</clipPath>
</defs>
</svg>
