<svg width="13" height="13" viewBox="0 0 13 13" fill="none" xmlns="http://www.w3.org/2000/svg">
<g clip-path="url(#clip0_1_755)">
<path d="M9.481 0H3.51898C1.57858 0 0 1.57858 0 3.51898V9.4811C0 11.4214 1.57858 13 3.51898 13H9.4811C11.4214 13 13 11.4214 13 9.4811V3.51898C13 1.57858 11.4214 0 9.481 0V0ZM12.2379 9.4811C12.2379 11.0012 11.0012 12.2379 9.481 12.2379H3.51898C1.99881 12.2379 0.762114 11.0012 0.762114 9.4811V3.51898C0.762114 1.99881 1.99881 0.762114 3.51898 0.762114H9.4811C11.0012 0.762114 12.2379 1.99881 12.2379 3.51898V9.4811Z" fill="black"/>
<path d="M6.49989 2.9454C4.53986 2.9454 2.94531 4.53995 2.94531 6.49999C2.94531 8.46002 4.53986 10.0546 6.49989 10.0546C8.45993 10.0546 10.0545 8.46002 10.0545 6.49999C10.0545 4.53995 8.45993 2.9454 6.49989 2.9454ZM6.49989 9.29245C4.96019 9.29245 3.70743 8.03978 3.70743 6.49999C3.70743 4.96028 4.96019 3.70752 6.49989 3.70752C8.03969 3.70752 9.29236 4.96028 9.29236 6.49999C9.29236 8.03978 8.03969 9.29245 6.49989 9.29245Z" fill="black"/>
<path d="M10.1394 1.68301C9.56023 1.68301 9.08911 2.15423 9.08911 2.73335C9.08911 3.31257 9.56023 3.78379 10.1394 3.78379C10.7187 3.78379 11.1899 3.31257 11.1899 2.73335C11.1899 2.15413 10.7187 1.68301 10.1394 1.68301ZM10.1394 3.02157C9.98056 3.02157 9.85122 2.89224 9.85122 2.73335C9.85122 2.57436 9.98056 2.44513 10.1394 2.44513C10.2984 2.44513 10.4278 2.57436 10.4278 2.73335C10.4278 2.89224 10.2984 3.02157 10.1394 3.02157Z" fill="black"/>
</g>
<defs>
<clipPath id="clip0_1_755">
<rect width="13" height="13" fill="white"/>
</clipPath>
</defs>
</svg>
