<svg width="31" height="31" viewBox="0 0 31 31" fill="none" xmlns="http://www.w3.org/2000/svg">
<g clip-path="url(#clip0_1_240)">
<path d="M30.9792 27.1596L30.3144 24.6783C30.2279 24.3552 29.8958 24.1633 29.5728 24.2501C29.2498 24.3367 29.0581 24.6687 29.1447 24.9917L29.4358 26.078L25.1871 23.6544V13.5816C25.1871 13.3649 25.0712 13.1647 24.8833 13.0567L16.1045 8.00947V3.21317L16.8874 3.99602C17.1239 4.23247 17.5072 4.23247 17.7437 3.99602C17.9802 3.75957 17.9802 3.37617 17.7437 3.13966L15.9272 1.32315C15.6905 1.08549 15.3029 1.09027 15.0709 1.32315L13.2544 3.13966C13.0179 3.37611 13.0179 3.75951 13.2544 3.99602C13.4908 4.23241 13.8742 4.23241 14.1107 3.99602L14.8936 3.21317V8.01056L6.17369 13.0575C5.98665 13.1658 5.87148 13.3656 5.87148 13.5816V23.5565L1.56303 26.0048L1.85458 24.9165C1.9411 24.5935 1.7494 24.2615 1.42637 24.175C1.10327 24.0883 0.771334 24.2801 0.684808 24.6031L0.0199666 27.0851C-0.0641982 27.3993 0.123992 27.7491 0.466282 27.8314L2.92953 28.4915C3.25517 28.5787 3.58528 28.3837 3.67115 28.0633C3.75773 27.7404 3.56603 27.4084 3.24299 27.3218L2.19227 27.0402L6.46838 24.6103L15.23 29.7696C15.4175 29.8801 15.6505 29.8815 15.8397 29.7724L18.0608 28.492C18.3505 28.325 18.4499 27.9547 18.2829 27.665C18.1159 27.3754 17.7457 27.2759 17.4559 27.4429L15.5405 28.5471L7.68302 23.9202L15.4609 19.5004L23.3887 24.0227L22.1758 24.7219C21.8861 24.8889 21.7867 25.2592 21.9537 25.5489C22.1207 25.8387 22.4911 25.9381 22.7807 25.771L24.6075 24.7179L28.8086 27.1144L27.7565 27.3963C27.4334 27.4828 27.2417 27.8148 27.3283 28.1379C27.4144 28.4593 27.7453 28.6531 28.0699 28.566L30.4966 27.9158C30.8431 27.8547 31.0722 27.5064 30.9792 27.1596ZM23.976 22.9635L16.1045 18.4733V9.40636L23.976 13.9319V22.9635ZM7.08248 13.9308L14.8935 9.40987V18.4298L7.08248 22.8684V13.9308Z" fill="#DC7000"/>
<path d="M20.1009 27.1824C20.4353 27.1824 20.7064 26.9113 20.7064 26.5769C20.7064 26.2425 20.4353 25.9714 20.1009 25.9714C19.7664 25.9714 19.4954 26.2425 19.4954 26.5769C19.4954 26.9113 19.7664 27.1824 20.1009 27.1824Z" fill="#DC7000"/>
</g>
<defs>
<clipPath id="clip0_1_240">
<rect width="30.8475" height="30.8475" fill="white" transform="scale(1.00495)"/>
</clipPath>
</defs>
</svg>
