<svg width="34" height="34" viewBox="0 0 34 34" fill="none" xmlns="http://www.w3.org/2000/svg">
<g clip-path="url(#clip0_1_222)">
<path d="M30.0333 1.69995H3.96667C1.77697 1.70245 0.00249823 3.47693 0 5.66662V28.3333C0.00249823 30.523 1.77697 32.2975 3.96667 32.3H30.0333C32.223 32.2975 33.9975 30.523 34 28.3333V5.66662C33.9975 3.47693 32.223 1.70245 30.0333 1.69995ZM32.8667 28.3333C32.8648 29.8973 31.5974 31.1648 30.0333 31.1666H3.96667C2.40264 31.1648 1.13521 29.8973 1.13333 28.3333V5.66662C1.13521 4.10259 2.40264 2.83516 3.96667 2.83329H30.0333C31.5974 2.83516 32.8648 4.10259 32.8667 5.66662V28.3333Z" fill="#DC7000"/>
<path d="M30.0333 6.23328H3.96665C3.02776 6.23328 2.26665 6.99439 2.26665 7.93328V28.3333C2.26665 29.2722 3.02776 30.0333 3.96665 30.0333H30.0333C30.9722 30.0333 31.7333 29.2722 31.7333 28.3333V7.93328C31.7333 6.99439 30.9722 6.23328 30.0333 6.23328ZM17 17.4895L10.8284 14.1666L17 10.8437L23.1715 14.1666L17 17.4895ZM23.8 15.1152V21.7599L17.5666 25.118V18.4733L23.8 15.1152ZM16.4333 18.4733V25.118L10.2 21.7599V15.1152L16.4333 18.4733ZM3.39998 7.93328C3.39998 7.62031 3.65368 7.36661 3.96665 7.36661H16.4333V9.85994L9.36471 13.6679C9.35735 13.6719 9.34885 13.6736 9.34148 13.6781C9.17012 13.7811 9.06569 13.9667 9.06665 14.1666V18.9164L3.39998 21.7497V7.93328ZM30.6 28.3333C30.6 28.6462 30.3463 28.8999 30.0333 28.8999H3.96665C3.65368 28.8999 3.39998 28.6462 3.39998 28.3333V23.0168L9.06665 20.1835V22.0999C9.06676 22.3083 9.18123 22.4998 9.36471 22.5986L16.7314 26.5653C16.8991 26.6555 17.1009 26.6555 17.2686 26.5653L24.6352 22.5986C24.8187 22.4998 24.9332 22.3083 24.9333 22.0999V20.1835L30.6 23.0168V28.3333ZM30.6 21.7497L24.9333 18.9164V14.1666C24.9332 13.9673 24.8284 13.7827 24.6574 13.6804C24.65 13.6759 24.6415 13.6742 24.6341 13.6702L17.5666 9.85994V7.36661H30.0333C30.3463 7.36661 30.6 7.62031 30.6 7.93328V21.7497Z" fill="#DC7000"/>
<path d="M3.39991 5.1C3.71287 5.1 3.96658 4.84629 3.96658 4.53333C3.96658 4.22037 3.71287 3.96666 3.39991 3.96666C3.08695 3.96666 2.83324 4.22037 2.83324 4.53333C2.83324 4.84629 3.08695 5.1 3.39991 5.1Z" fill="#DC7000"/>
<path d="M5.66656 5.1C5.97952 5.1 6.23322 4.84629 6.23322 4.53333C6.23322 4.22037 5.97952 3.96666 5.66656 3.96666C5.3536 3.96666 5.09989 4.22037 5.09989 4.53333C5.09989 4.84629 5.3536 5.1 5.66656 5.1Z" fill="#DC7000"/>
<path d="M7.9332 5.1C8.24616 5.1 8.49987 4.84629 8.49987 4.53333C8.49987 4.22037 8.24616 3.96666 7.9332 3.96666C7.62024 3.96666 7.36654 4.22037 7.36654 4.53333C7.36654 4.84629 7.62024 5.1 7.9332 5.1Z" fill="#DC7000"/>
<path d="M22.0999 5.1H30.0333C30.3462 5.1 30.5999 4.84629 30.5999 4.53333C30.5999 4.22037 30.3462 3.96666 30.0333 3.96666H22.0999C21.787 3.96666 21.5333 4.22037 21.5333 4.53333C21.5333 4.84629 21.787 5.1 22.0999 5.1Z" fill="#DC7000"/>
</g>
<defs>
<clipPath id="clip0_1_222">
<rect width="33.0508" height="33.0508" fill="white" transform="scale(1.02872)"/>
</clipPath>
</defs>
</svg>
