<svg width="30" height="30" viewBox="0 0 30 30" fill="none" xmlns="http://www.w3.org/2000/svg">
<g clip-path="url(#clip0_1_147)">
<path d="M21.2973 0H8.70238C7.48839 0 6.49989 0.988497 6.49989 2.20249V27.7969C6.49989 29.0114 7.48839 29.9999 8.70238 29.9999H21.2968C22.5113 29.9999 23.4998 29.0114 23.4998 27.7974V2.20249C23.4998 0.988497 22.5113 0 21.2973 0ZM7.49989 3.99999H22.4998V22.9999H7.49989V3.99999ZM8.70238 0.999997H21.2968C21.9603 0.999997 22.4998 1.5395 22.4998 2.20249V2.99999H7.49989V2.20249C7.49989 1.5395 8.03939 0.999997 8.70238 0.999997ZM21.2973 28.9999H8.70238C8.03939 28.9999 7.49989 28.4604 7.49989 27.7974V23.9999H22.4998V27.7974C22.4998 28.4604 21.9603 28.9999 21.2973 28.9999Z" fill="#DC7000"/>
<path d="M15 24.4999C13.897 24.4999 13 25.3969 13 26.4999C13 27.6029 13.897 28.4999 15 28.4999C16.103 28.4999 17 27.6029 17 26.4999C17 25.3969 16.103 24.4999 15 24.4999ZM15 27.4999C14.4485 27.4999 14 27.0514 14 26.4999C14 25.9484 14.4485 25.4999 15 25.4999C15.5515 25.4999 16 25.9484 16 26.4999C16 27.0514 15.5515 27.4999 15 27.4999Z" fill="#DC7000"/>
<path d="M12.9999 2.49999H14.9999C15.2764 2.49999 15.4999 2.27649 15.4999 2C15.4999 1.7235 15.2764 1.5 14.9999 1.5H12.9999C12.7234 1.5 12.4999 1.7235 12.4999 2C12.4999 2.27649 12.7234 2.49999 12.9999 2.49999Z" fill="#DC7000"/>
<path d="M16.5 2.49999H17C17.2765 2.49999 17.5 2.27649 17.5 2C17.5 1.7235 17.2765 1.5 17 1.5H16.5C16.2235 1.5 16 1.7235 16 2C16 2.27649 16.2235 2.49999 16.5 2.49999Z" fill="#DC7000"/>
<path d="M28.3059 2.28449C28.1104 2.08899 27.7944 2.08899 27.5989 2.28449C27.4034 2.47999 27.4034 2.79599 27.5989 2.99148C29.4669 4.85948 29.4669 7.89897 27.5989 9.76747C27.4034 9.96297 27.4034 10.279 27.5989 10.4745C27.6964 10.572 27.8244 10.621 27.9524 10.621C28.0804 10.621 28.2084 10.572 28.3059 10.4745C30.5639 8.21697 30.5639 4.54248 28.3059 2.28449Z" fill="#DC7000"/>
<path d="M26.2004 3.42248C26.0049 3.22699 25.6889 3.22699 25.4934 3.42248C25.2979 3.61798 25.2979 3.93398 25.4934 4.12948C26.1119 4.74798 26.4524 5.57198 26.4524 6.44898C26.4524 7.32597 26.1119 8.14947 25.4934 8.76797C25.2979 8.96347 25.2979 9.27947 25.4934 9.47497C25.5909 9.57247 25.7189 9.62147 25.8469 9.62147C25.9749 9.62147 26.1029 9.57247 26.2004 9.47497C27.0079 8.66797 27.4524 7.59297 27.4524 6.44898C27.4524 5.30498 27.0084 4.22948 26.2004 3.42248Z" fill="#DC7000"/>
<path d="M2.40099 2.99148C2.59648 2.79599 2.59648 2.47999 2.40099 2.28449C2.20549 2.08899 1.88949 2.08899 1.69399 2.28449C-0.564006 4.54248 -0.564006 8.21647 1.69399 10.4745C1.79149 10.572 1.91949 10.621 2.04749 10.621C2.17549 10.621 2.30349 10.572 2.40099 10.4745C2.59648 10.279 2.59648 9.96297 2.40099 9.76747C0.532491 7.89947 0.532491 4.85998 2.40099 2.99148Z" fill="#DC7000"/>
<path d="M4.50645 3.28449C4.31096 3.08899 3.99496 3.08899 3.79946 3.28449C2.99196 4.09149 2.54746 5.16648 2.54746 6.31048C2.54746 7.45448 2.99196 8.52948 3.79946 9.33697C3.89696 9.43447 4.02496 9.48347 4.15296 9.48347C4.28096 9.48347 4.40895 9.43447 4.50645 9.33697C4.70195 9.14147 4.70195 8.82547 4.50645 8.62998C3.88796 8.01148 3.54746 7.18748 3.54746 6.31048C3.54746 5.43348 3.88746 4.60999 4.50645 3.99149C4.70145 3.79649 4.70145 3.47999 4.50645 3.28449Z" fill="#DC7000"/>
</g>
<defs>
<clipPath id="clip0_1_147">
<rect width="29.7458" height="29.7458" fill="white" transform="scale(1.00854)"/>
</clipPath>
</defs>
</svg>
