<svg width="16" height="16" viewBox="0 0 16 16" fill="none" xmlns="http://www.w3.org/2000/svg">
<path d="M14.1891 5.51721L10.2219 4.94064L8.44844 1.34533C8.4 1.24689 8.32031 1.16721 8.22187 1.11877C7.975 0.996893 7.675 1.09846 7.55156 1.34533L5.77812 4.94064L1.81094 5.51721C1.70156 5.53283 1.60156 5.58439 1.525 5.66252C1.43244 5.75765 1.38143 5.88564 1.38319 6.01836C1.38495 6.15109 1.43933 6.27768 1.53437 6.37033L4.40469 9.16877L3.72656 13.1203C3.71066 13.2123 3.72083 13.3068 3.75592 13.3932C3.79102 13.4797 3.84963 13.5545 3.92511 13.6094C4.00059 13.6642 4.08992 13.6968 4.18297 13.7034C4.27602 13.71 4.36907 13.6904 4.45156 13.6469L8 11.7813L11.5484 13.6469C11.6453 13.6985 11.7578 13.7156 11.8656 13.6969C12.1375 13.65 12.3203 13.3922 12.2734 13.1203L11.5953 9.16877L14.4656 6.37033C14.5437 6.29377 14.5953 6.19377 14.6109 6.08439C14.6531 5.81096 14.4625 5.55783 14.1891 5.51721Z" fill="#FEA250"/>
</svg>
